<?xml version="1.0" encoding="utf-8"?>
<!-- Generator: Adobe Illustrator 21.0.1, SVG Export Plug-In . SVG Version: 6.00 Build 0)  -->
<svg version="1.1" id="Layer_1" xmlns="http://www.w3.org/2000/svg" xmlns:xlink="http://www.w3.org/1999/xlink" x="0px" y="0px"
	 viewBox="0 0 65.8 570" style="enable-background:new 0 0 65.8 570;" xml:space="preserve">
<style type="text/css">
	.st0{fill:none;stroke:url(#SVGID_1_);stroke-miterlimit:10;}
	.st1{fill:none;stroke:url(#SVGID_2_);stroke-miterlimit:10;}
	.st2{fill:none;stroke:url(#SVGID_3_);stroke-width:0.75;stroke-miterlimit:10;}
	.st3{fill:none;stroke:url(#SVGID_4_);stroke-width:0.75;stroke-miterlimit:10;}
	.st4{fill:none;stroke:url(#SVGID_5_);stroke-width:0.75;stroke-miterlimit:10;}
	.st5{fill:none;stroke:url(#SVGID_6_);stroke-miterlimit:10;}
	.st6{fill:none;stroke:url(#SVGID_7_);stroke-width:0.75;stroke-miterlimit:10;}
	.st7{fill:none;stroke:url(#SVGID_8_);stroke-miterlimit:10;}
	.st8{fill:none;stroke:url(#SVGID_9_);stroke-miterlimit:10;}
	.st9{fill:none;stroke:url(#SVGID_10_);stroke-width:0.75;stroke-miterlimit:10;}
	.st10{fill:url(#SVGID_11_);}
	.st11{fill:url(#SVGID_12_);}
	.st12{fill:none;stroke:url(#SVGID_13_);stroke-width:0.75;stroke-miterlimit:10;}
</style>
<title>Asset 1</title>
<linearGradient id="SVGID_1_" gradientUnits="userSpaceOnUse" x1="-1420.9308" y1="3071.5964" x2="-1411.2726" y2="3071.5964" gradientTransform="matrix(0.8116 0.5843 0.5843 -0.8116 -604.1866 3339.4919)">
	<stop  offset="0" style="stop-color:#00FFEE"/>
	<stop  offset="1" style="stop-color:#D585FF"/>
</linearGradient>
<path class="st0" d="M39.7,23.4l-2-1.4c-1.4-1-1.7-3-0.6-4.4l1.4-2c1-1.4,3-1.7,4.4-0.6l2,1.4c1.4,1,1.7,3,0.6,4.4l-1.4,2
	C43.1,24.1,41,24.5,39.7,23.4z"/>
<linearGradient id="SVGID_2_" gradientUnits="userSpaceOnUse" x1="-2040.97" y1="2657.082" x2="-2054.1289" y2="2658.155" gradientTransform="matrix(0.5687 0.8225 0.8225 -0.5687 -993.7175 3223.1897)">
	<stop  offset="0" style="stop-color:#00FFEE"/>
	<stop  offset="1" style="stop-color:#D585FF"/>
</linearGradient>
<path class="st1" d="M23.7,32.2l-2-2.7c-1.3-2-0.8-4.6,1.3-5.9l2.7-2c2-1.3,4.6-0.8,5.9,1.3l2,2.7c1.3,2,0.8,4.6-1.3,5.9l-2.7,2
	C27.8,34.7,25,34.2,23.7,32.2z"/>
<linearGradient id="SVGID_3_" gradientUnits="userSpaceOnUse" x1="142.2229" y1="2654.2612" x2="155.3063" y2="2654.2612" gradientTransform="matrix(1 0 0 -1 -130.3979 2965.3113)">
	<stop  offset="0" style="stop-color:#A343FF"/>
	<stop  offset="1" style="stop-color:#4CABFD"/>
	<stop  offset="1" style="stop-color:#E93E3A"/>
</linearGradient>
<path class="st2" d="M20,317.2h-3.3c-2.5,0-4.5-2-4.5-4.5v-3.3c0-2.5,2-4.5,4.5-4.5H20c2.5,0,4.5,2,4.5,4.5v3.3
	C24.5,315.2,22.5,317.2,20,317.2z"/>
<linearGradient id="SVGID_4_" gradientUnits="userSpaceOnUse" x1="-180.1978" y1="2761.0869" x2="-173.7301" y2="2761.0869" gradientTransform="matrix(0.9878 0.1558 0.1558 -0.9878 -246.1032 3053.9678)">
	<stop  offset="0" style="stop-color:#A343FF"/>
	<stop  offset="1" style="stop-color:#4CABFD"/>
	<stop  offset="1" style="stop-color:#E93E3A"/>
</linearGradient>
<path class="st3" d="M9.6,301.9l-1.5-0.2c-1.1-0.2-1.9-1.2-1.7-2.4l0.2-1.5c0.2-1.1,1.2-1.9,2.4-1.7l1.5,0.2
	c1.1,0.2,1.9,1.2,1.7,2.4l-0.2,1.5C11.8,301.3,10.7,302.1,9.6,301.9z"/>
<linearGradient id="SVGID_5_" gradientUnits="userSpaceOnUse" x1="-988.9614" y1="2986.571" x2="-988.9615" y2="3001.9548" gradientTransform="matrix(0.866 0.5 0.5 -0.866 -625.5868 3240.9421)">
	<stop  offset="0" style="stop-color:#A343FF"/>
	<stop  offset="1" style="stop-color:#4CABFD"/>
	<stop  offset="1" style="stop-color:#E93E3A"/>
</linearGradient>
<path class="st4" d="M13.2,160.6l-3.4-2c-2.5-1.4-3.4-4.7-1.9-7.2l2-3.4c1.4-2.5,4.7-3.4,7.2-1.9l3.4,2c2.5,1.4,3.4,4.7,1.9,7.2
	l-2,3.4C19,161.2,15.7,162.1,13.2,160.6z"/>
<linearGradient id="SVGID_6_" gradientUnits="userSpaceOnUse" x1="-1818.5713" y1="2656.751" x2="-1813.6938" y2="2656.751" gradientTransform="matrix(0.5845 0.8114 0.8114 -0.5845 -1078.7218 3192.6926)">
	<stop  offset="0" style="stop-color:#63E2FF"/>
	<stop  offset="1" style="stop-color:#B066FE"/>
</linearGradient>
<path class="st5" d="M14.2,167.8l-0.6-0.9c-0.4-0.6-0.3-1.5,0.4-1.9l0.9-0.6c0.6-0.4,1.5-0.3,1.9,0.4l0.6,0.9
	c0.4,0.6,0.3,1.5-0.4,1.9l-0.9,0.6C15.5,168.6,14.6,168.5,14.2,167.8z"/>
<linearGradient id="SVGID_7_" gradientUnits="userSpaceOnUse" x1="-2139.3955" y1="2386.5571" x2="-2145.5989" y2="2382.1548" gradientTransform="matrix(0.4169 0.909 0.909 -0.4169 -1255.8676 3082.1416)">
	<stop  offset="0" style="stop-color:#A343FF"/>
	<stop  offset="1" style="stop-color:#4CABFD"/>
	<stop  offset="1" style="stop-color:#E93E3A"/>
</linearGradient>
<path class="st6" d="M15.8,142.6l-0.7-1.6c-0.5-1.1,0-2.4,1.1-2.9l1.6-0.7c1.1-0.5,2.4,0,2.9,1.1l0.7,1.6c0.5,1.1,0,2.4-1.1,2.9
	l-1.6,0.7C17.7,144.2,16.3,143.7,15.8,142.6z"/>
<linearGradient id="SVGID_8_" gradientUnits="userSpaceOnUse" x1="-2155.2087" y1="2386.25" x2="-2148.0144" y2="2386.25" gradientTransform="matrix(0.4169 0.909 0.909 -0.4169 -1255.8676 3082.1416)">
	<stop  offset="0" style="stop-color:#63E2FF"/>
	<stop  offset="1" style="stop-color:#B066FE"/>
</linearGradient>
<path class="st7" d="M13.8,133.6l-0.7-1.6c-0.5-1.1,0-2.4,1.1-2.9l1.6-0.7c1.1-0.5,2.4,0,2.9,1.1l0.7,1.6c0.5,1.1,0,2.4-1.1,2.9
	l-1.6,0.7C15.7,135.2,14.3,134.7,13.8,133.6z"/>
<linearGradient id="SVGID_9_" gradientUnits="userSpaceOnUse" x1="14.518" y1="3228.8501" x2="24.3972" y2="3228.8501" gradientTransform="matrix(1 0 0 -1 0 3784)">
	<stop  offset="0" style="stop-color:#A343FF"/>
	<stop  offset="1" style="stop-color:#4CABFD"/>
	<stop  offset="1" style="stop-color:#E93E3A"/>
</linearGradient>
<path class="st8" d="M18.7,550.8c3-0.5,5.6,2.1,5.1,5.1c-0.3,1.8-1.8,3.3-3.6,3.6c-3,0.5-5.6-2.1-5.1-5.1
	C15.4,552.6,16.8,551.1,18.7,550.8z"/>
<linearGradient id="SVGID_10_" gradientUnits="userSpaceOnUse" x1="1270.8602" y1="87.3968" x2="1283.993" y2="87.3968" gradientTransform="matrix(9.125579e-02 -0.9958 -0.9958 -9.125579e-02 -4.686 1821.0118)">
	<stop  offset="0" style="stop-color:#A343FF"/>
	<stop  offset="1" style="stop-color:#4CABFD"/>
	<stop  offset="1" style="stop-color:#E93E3A"/>
</linearGradient>
<path class="st9" d="M31.3,537.4l-0.7,8.3c-0.1,1-1,1.9-2.1,1.8l-8.3-0.7c-1-0.1-1.9-1-1.8-2.1l0.7-8.3c0.1-1,1-1.9,2.1-1.8l8.3,0.7
	C30.6,535.3,31.5,536.4,31.3,537.4z"/>
<linearGradient id="SVGID_11_" gradientUnits="userSpaceOnUse" x1="32.2113" y1="16.4504" x2="32.7113" y2="265.4504">
	<stop  offset="0" style="stop-color:#63E2FF"/>
	<stop  offset="1" style="stop-color:#B066FE"/>
</linearGradient>
<path class="st10" d="M0,0v270.6c14.2-7.3,20.5-22.8,24.7-37.5c1.6-5.9,3.3-11.8,3.1-17.9c-0.6-18.2-16.8-31.8-22.4-49
	c-2.8-8.6-2.9-17.9-0.2-26.6c6.3-20.2,22.4-34,28.2-54.3c3.7-13.4,0.8-27.7-7.9-38.6c-5.3-6.3-8.8-12.4-8.3-20.6
	c0.5-8.5,9.6-13.8,17.9-15.5C43.4,8.9,52.5,9,59.7,4.5c1.9-1.3,3.7-2.8,5.2-4.5H0z"/>
<linearGradient id="SVGID_12_" gradientUnits="userSpaceOnUse" x1="3.9486" y1="394.9132" x2="6.7115" y2="450.171">
	<stop  offset="0" style="stop-color:#63E2FF"/>
	<stop  offset="1" style="stop-color:#B066FE"/>
</linearGradient>
<path class="st11" d="M0,383c0,0,12.5,6,12.9,36S0,472.3,0,472.3V383z"/>
<linearGradient id="SVGID_13_" gradientUnits="userSpaceOnUse" x1="134.3457" y1="2642.0933" x2="143.951" y2="2642.0933" gradientTransform="matrix(0.8312 0.5559 0.5559 -0.8312 -1575.1598 2442.9453)">
	<stop  offset="0" style="stop-color:#A343FF"/>
	<stop  offset="1" style="stop-color:#4CABFD"/>
	<stop  offset="1" style="stop-color:#E93E3A"/>
</linearGradient>
<path class="st12" d="M7.8,328.4l-2-1.3c-1.5-1-1.9-3-0.9-4.5l1.3-2c1-1.5,3-1.9,4.5-0.9l2,1.3c1.5,1,1.9,3,0.9,4.5l-1.3,2
	C11.3,329,9.3,329.4,7.8,328.4z"/>
</svg>
