<?xml version="1.0" encoding="utf-8"?>
<!-- Generator: Adobe Illustrator 21.0.1, SVG Export Plug-In . SVG Version: 6.00 Build 0)  -->
<svg version="1.1" id="Layer_1" xmlns="http://www.w3.org/2000/svg" xmlns:xlink="http://www.w3.org/1999/xlink" x="0px" y="0px"
	 viewBox="0 0 70.3 565.1" style="enable-background:new 0 0 70.3 565.1;" xml:space="preserve">
<style type="text/css">
	.st0{fill:none;stroke:url(#SVGID_1_);stroke-miterlimit:10;}
	.st1{fill:none;stroke:url(#SVGID_2_);stroke-miterlimit:10;}
	.st2{fill:none;stroke:url(#SVGID_3_);stroke-width:0.75;stroke-miterlimit:10;}
	.st3{fill:none;stroke:url(#SVGID_4_);stroke-width:0.75;stroke-miterlimit:10;}
	.st4{fill:none;stroke:url(#SVGID_5_);stroke-width:0.75;stroke-miterlimit:10;}
	.st5{fill:url(#SVGID_6_);}
	.st6{fill:none;stroke:url(#SVGID_7_);stroke-width:0.75;stroke-miterlimit:10;}
	.st7{fill:none;stroke:url(#SVGID_8_);stroke-width:0.75;stroke-miterlimit:10;}
	.st8{fill:none;stroke:url(#SVGID_9_);stroke-width:0.75;stroke-miterlimit:10;}
	.st9{fill:url(#SVGID_10_);}
</style>
<title>Asset 2</title>
<g id="Layer_2">
	<g id="Layer_1-2">
		
			<linearGradient id="SVGID_1_" gradientUnits="userSpaceOnUse" x1="37.84" y1="-2640" x2="46.84" y2="-2640" gradientTransform="matrix(1 0 0 1 0 2988)">
			<stop  offset="0" style="stop-color:#A343FF"/>
			<stop  offset="1" style="stop-color:#4CABFD"/>
			<stop  offset="1" style="stop-color:#E93E3A"/>
		</linearGradient>
		<circle class="st0" cx="42.3" cy="348" r="4"/>
		
			<linearGradient id="SVGID_2_" gradientUnits="userSpaceOnUse" x1="44.31" y1="-2881.5" x2="53.31" y2="-2881.5" gradientTransform="matrix(1 0 0 1 0 2988)">
			<stop  offset="0" style="stop-color:#A343FF"/>
			<stop  offset="1" style="stop-color:#4CABFD"/>
			<stop  offset="1" style="stop-color:#E93E3A"/>
		</linearGradient>
		<circle class="st1" cx="48.8" cy="106.5" r="4"/>
		
			<linearGradient id="SVGID_3_" gradientUnits="userSpaceOnUse" x1="1011.1201" y1="955.5304" x2="1026.9602" y2="955.5304" gradientTransform="matrix(9.000000e-02 -1 1 9.000000e-02 -1003.55 1293.5701)">
			<stop  offset="0" style="stop-color:#A343FF"/>
			<stop  offset="1" style="stop-color:#4CABFD"/>
			<stop  offset="1" style="stop-color:#E93E3A"/>
		</linearGradient>
		<path class="st2" d="M37.6,371.4l10.2,0.9c1.3,0.1,2.5-0.8,2.6-2.1v-0.1l0.9-10.2c0.1-1.3-0.9-2.5-2.2-2.6l-10.2-0.9
			c-1.3-0.1-2.5,0.8-2.6,2.1v0.1l-0.9,10.2C35.3,370.1,36.3,371.3,37.6,371.4L37.6,371.4z"/>
		
			<linearGradient id="SVGID_4_" gradientUnits="userSpaceOnUse" x1="-191.4463" y1="-2186.2043" x2="-178.3663" y2="-2186.2043" gradientTransform="matrix(0.99 0.14 -0.14 0.99 -78.6 2423.97)">
			<stop  offset="0" style="stop-color:#A343FF"/>
			<stop  offset="1" style="stop-color:#4CABFD"/>
			<stop  offset="1" style="stop-color:#E93E3A"/>
		</linearGradient>
		<path class="st3" d="M36.5,230.9l-0.5,3.3c-0.4,2.4,1.2,4.7,3.6,5.1c0.1,0,0.1,0,0.2,0l3.3,0.5c2.4,0.3,4.7-1.4,5.1-3.8l0.5-3.3
			c0.4-2.4-1.2-4.7-3.6-5.1c-0.1,0-0.1,0-0.2,0l-3.3-0.5c-2.4-0.4-4.7,1.2-5.1,3.6C36.5,230.8,36.5,230.8,36.5,230.9z"/>
		
			<linearGradient id="SVGID_5_" gradientUnits="userSpaceOnUse" x1="175.4248" y1="-2044.1605" x2="191.8548" y2="-2044.1605" gradientTransform="matrix(1 -6.000000e-02 6.000000e-02 1 -9.39 2270.6099)">
			<stop  offset="0" style="stop-color:#A343FF"/>
			<stop  offset="1" style="stop-color:#4CABFD"/>
			<stop  offset="1" style="stop-color:#E93E3A"/>
		</linearGradient>
		<path class="st4" d="M47.1,223.5l4.2-0.2c3.1-0.2,5.5-2.9,5.4-6l-0.2-4.2c-0.1-3-2.6-5.5-5.6-5.4c-0.1,0-0.3,0-0.4,0l-4.2,0.2
			c-3,0.1-5.5,2.6-5.4,5.6c0,0.1,0,0.3,0,0.4l0.2,4.2c0.1,3,2.6,5.5,5.6,5.4C46.9,223.5,47,223.5,47.1,223.5z"/>
		<linearGradient id="SVGID_6_" gradientUnits="userSpaceOnUse" x1="49.565" y1="286.8079" x2="71.565" y2="486.8079">
			<stop  offset="0" style="stop-color:#63E2FF"/>
			<stop  offset="1" style="stop-color:#B066FE"/>
		</linearGradient>
		<path class="st5" d="M57.2,258.7c-7,14.4-13.7,30-11.9,45.9c1.6,13.8,9.4,26.2,11.7,39.9c4.8,28.7-15.1,55.8-17.2,84.8
			c-0.9,12.5,3,27.1,14.4,32.4c4.1,1.9,8.8,2.4,13.4,2.5c0.9,0,1.8,0,2.7,0V236.8C65.3,243.7,60.9,251,57.2,258.7z"/>
	</g>
</g>
<linearGradient id="SVGID_7_" gradientUnits="userSpaceOnUse" x1="618.1602" y1="1775.6653" x2="638.3986" y2="1775.6653" gradientTransform="matrix(0.835 -0.5502 -0.5502 -0.835 492.0235 2360.0066)">
	<stop  offset="0" style="stop-color:#A343FF"/>
	<stop  offset="1" style="stop-color:#4CABFD"/>
	<stop  offset="1" style="stop-color:#E93E3A"/>
</linearGradient>
<path class="st6" d="M44.1,520.8c-0.9-1.5-2.8-1.9-4.3-0.9l-11,7.3c-1.5,0.9-1.9,2.8-0.9,4.3l7.3,11c0.9,1.5,2.8,1.9,4.3,0.9
	l11.1-7.3c1.4-0.9,1.8-2.8,0.8-4.3L44.1,520.8z"/>
<linearGradient id="SVGID_8_" gradientUnits="userSpaceOnUse" x1="1308.5283" y1="86.7051" x2="1320.8152" y2="86.7051" gradientTransform="matrix(9.125579e-02 -0.9958 -0.9958 -9.125579e-02 -1.2251 1820.8043)">
	<stop  offset="0" style="stop-color:#A343FF"/>
	<stop  offset="1" style="stop-color:#4CABFD"/>
	<stop  offset="1" style="stop-color:#E93E3A"/>
</linearGradient>
<path class="st7" d="M35.8,509.9c1,0.1,1.9-0.7,2-1.7l0.7-7.8c0.1-1-0.7-1.9-1.7-2l-7.8-0.7c-1-0.1-1.9,0.7-2,1.7l-0.7,7.8
	c-0.1,1,0.7,1.9,1.7,2L35.8,509.9z"/>
<linearGradient id="SVGID_9_" gradientUnits="userSpaceOnUse" x1="889.2081" y1="1530.4233" x2="897.8281" y2="1530.4233" gradientTransform="matrix(0.7331 -0.6801 -0.6801 -0.7331 437.4359 2221.4043)">
	<stop  offset="0" style="stop-color:#A343FF"/>
	<stop  offset="1" style="stop-color:#4CABFD"/>
	<stop  offset="1" style="stop-color:#E93E3A"/>
</linearGradient>
<path class="st8" d="M52.7,487.2c-0.5-0.5-1.3-0.6-1.8-0.1l-3.9,3.6c-0.5,0.5-0.6,1.3-0.1,1.8l3.6,3.9c0.5,0.5,1.3,0.6,1.8,0.1
	l3.9-3.6c0.5-0.5,0.6-1.3,0.1-1.8L52.7,487.2z"/>
<linearGradient id="SVGID_10_" gradientUnits="userSpaceOnUse" x1="80.275" y1="189.571" x2="51.6083" y2="14.2377">
	<stop  offset="0" style="stop-color:#63E2FF"/>
	<stop  offset="1" style="stop-color:#B066FE"/>
</linearGradient>
<path class="st9" d="M70.3,204C54.2,176.9,53,156.6,55,143c2.7-18.7,11.1-28.2,8-46c-2.8-15.9-13.1-18.5-18.5-32
	C39.6,52.8,38.8,32.9,59,0c3.8,0,7.5,0,11.3,0C70.3,68,70.3,136,70.3,204z"/>
</svg>
