<svg id="b9857e4a-f663-4b52-a188-a84ca7faf7c3" data-name="Layer 1" xmlns="http://www.w3.org/2000/svg" viewBox="0 0 608.5 56.23"><defs><style>.f554ed0b-eff5-4f1d-977d-a097671c523b{fill:#d6f9ff;}</style></defs><title>test</title><path class="f554ed0b-eff5-4f1d-977d-a097671c523b" d="M3.5,792c1.13-1.57,8.65-11.63,22-12.71a30.08,30.08,0,0,1,18.18,4.54,37.91,37.91,0,0,1,18.52-14.67c20.44-7.2,38.59,8,39.5,8.73,1.09-1.26,7.85-8.84,18.17-8.73s20.16,8,23.42,19.57a35.08,35.08,0,0,1,60.12-28c1.46-1.35,21.93-19.55,49.28-12.59,25.76,6.57,35.42,29.81,36.35,32.16a44,44,0,0,1,44,7,21.66,21.66,0,0,1,12.58-4.89c11.27-.48,18.24,8.69,18.87,9.56Z" transform="translate(-3.5 -735.77)"/><path class="f554ed0b-eff5-4f1d-977d-a097671c523b" d="M457.21,792c.89-1.8,4.29-8.17,11.54-10.61,2.09-.71,6.45-2.18,10.83,0a12.24,12.24,0,0,1,5.25,5.24c2.51-18,15.7-29.32,27.26-28.31,9.16.8,15.08,9.17,16.42,11.18.15-.79,2-10.09,10.49-13.63a17.37,17.37,0,0,1,10.83-.7c1.43-3.56,5.76-12.87,15.38-17.12,15.91-7,35.95,3.24,43.69,16.78a30.45,30.45,0,0,1,3.1,7.68V792Z" transform="translate(-3.5 -735.77)"/></svg>