<svg id="f0ab454e-dda5-4294-889a-48ef8cb0f236" data-name="Layer 1" xmlns="http://www.w3.org/2000/svg" viewBox="0 0 445.78 134.15"><defs><style>.efe7d13f-3662-447d-bcf3-85f46276cd12{fill:#4b4453;}.baaeef72-67d5-40ae-84a7-5e1e5fa60725{fill:#b4b4b5;}.ed72b8d3-b813-4a2f-942d-e469660cac9b,.f5388c16-fbc0-4b0d-9ffa-0acfa6f64812{fill:none;stroke-linecap:round;stroke-miterlimit:10;stroke-width:18px;}.f5388c16-fbc0-4b0d-9ffa-0acfa6f64812{stroke:#acc4cf;}.ed72b8d3-b813-4a2f-942d-e469660cac9b{stroke:#3596b5;}</style></defs><title>paldo_logo</title><path class="efe7d13f-3662-447d-bcf3-85f46276cd12" d="M66.76,312.13a13,13,0,0,1-4,.83,12.56,12.56,0,0,1-2.63-.34l.19,6.95-9.17-.49-.37-25.47,8.86-1,0,1.54a13.41,13.41,0,0,1,4.55-.79c6,0,9.88,3.57,9.88,9.69C74.13,307.74,70.93,310.71,66.76,312.13Zm-5-13.18a5.39,5.39,0,0,0-2,.45l.19,6.54c.49,0,1,.07,1.54.07,2.26,0,5.41-.9,5.41-3.68S64.1,299,61.81,299Z" transform="translate(-50.8 -217.76)"/><path class="efe7d13f-3662-447d-bcf3-85f46276cd12" d="M92.27,319.12c-.71,0-1.43,0-2.14,0v-1.8a7.34,7.34,0,0,1-6,2.71,9.92,9.92,0,1,1,0-19.84,8,8,0,0,1,5.56,2.33l0-2.18a28.64,28.64,0,0,1,6.39-.64h1.09l.26,19.2A45.54,45.54,0,0,1,92.27,319.12Zm-6.69-12.58c-2,0-4.13,1.2-4.13,3.38a3.73,3.73,0,0,0,4,3.6c2,0,4.13-1.2,4.13-3.38A3.75,3.75,0,0,0,85.58,306.54Z" transform="translate(-50.8 -217.76)"/><path class="efe7d13f-3662-447d-bcf3-85f46276cd12" d="M102.3,319.8c-.86,0-1.69,0-2.56-.11l-.48-28.59a28.17,28.17,0,0,1,6.42-.75c.53,0,1,0,1.58,0l.26,29A39.85,39.85,0,0,1,102.3,319.8Z" transform="translate(-50.8 -217.76)"/><path class="efe7d13f-3662-447d-bcf3-85f46276cd12" d="M127.09,319.12c-.71,0-1.43,0-2.14,0l0-1.8c-1.39,1.73-4.32,2.41-6.42,2.41a9.89,9.89,0,0,1-9.66-10.07,9.75,9.75,0,0,1,9.66-9.77,7.76,7.76,0,0,1,6,2.63l-.08-10.93a32.82,32.82,0,0,1,3.8-.23,30.9,30.9,0,0,1,3.72.19l.22,27.35A45.31,45.31,0,0,1,127.09,319.12ZM120.48,306c-2,0-4.36,1.24-4.36,3.49A3.68,3.68,0,0,0,120,313c2,0,4.32-1.32,4.32-3.54A3.64,3.64,0,0,0,120.48,306Z" transform="translate(-50.8 -217.76)"/><path class="efe7d13f-3662-447d-bcf3-85f46276cd12" d="M144.9,319.84c-6.31,0-11.42-4.59-11.42-10.22s5.11-10.22,11.42-10.22,11.42,4.58,11.42,10.22S151.21,319.84,144.9,319.84Zm-.45-14.2a3.65,3.65,0,0,0-3.61,4.13,4.08,4.08,0,0,0,4.28,3.87,3.71,3.71,0,0,0,3.61-4.14A4,4,0,0,0,144.45,305.64Z" transform="translate(-50.8 -217.76)"/><path class="efe7d13f-3662-447d-bcf3-85f46276cd12" d="M172.47,319.42c-.9,0-1.8,0-2.74-.07l-.64-25.62a36.16,36.16,0,0,1,8-.9c.49,0,.94,0,1.42,0l.34,26.15A53.21,53.21,0,0,1,172.47,319.42Z" transform="translate(-50.8 -217.76)"/><path class="efe7d13f-3662-447d-bcf3-85f46276cd12" d="M203.84,319.39a27.17,27.17,0,0,1-7.59.11l.34-9a5.93,5.93,0,0,0-.49-2.48,3.47,3.47,0,0,0-4.66-1.24s-2.78,1.54-2.82,5.9l-.07,6.23a45.86,45.86,0,0,1-7.22-.22l0-18.11a31.44,31.44,0,0,1,7.51,0l-.07,2.37c1.8-2.26,5.37-3,8-2.52,4.77.86,7.14,4.81,7.1,9.58Z" transform="translate(-50.8 -217.76)"/><path class="efe7d13f-3662-447d-bcf3-85f46276cd12" d="M211.84,319.8c-.83,0-1.69,0-2.52-.11l-.26-13.57-4.81.12a21.28,21.28,0,0,1-.19-2.63,18,18,0,0,1,.23-2.86l4.65-.19-.15-8.15a28.59,28.59,0,0,1,6.43-.75c.52,0,1.05,0,1.61,0l.08,8.6,5.45-.22c0,.6.11,1.2.11,1.8a13.93,13.93,0,0,1-.6,3.91l-4.92.15.11,13.48A39.47,39.47,0,0,1,211.84,319.8Z" transform="translate(-50.8 -217.76)"/><path class="efe7d13f-3662-447d-bcf3-85f46276cd12" d="M243.88,311.5l-14.58.07c.53,1.35,2.82,2.18,4.14,2.18a14.06,14.06,0,0,0,6.42-1.46l.11-.08a23.76,23.76,0,0,1,2.56,5.3c-2.29,1.88-6.54,2.59-9.43,2.59-5.79,0-11.42-4.4-11.42-10.48s5.67-10.22,11.42-10.22S244,303.53,244,309.62A14.78,14.78,0,0,1,243.88,311.5ZM233.1,305c-1.77,0-3.76.9-4,2.82l7.62-.15C236.25,305.64,235.05,305,233.1,305Z" transform="translate(-50.8 -217.76)"/><path class="efe7d13f-3662-447d-bcf3-85f46276cd12" d="M260.33,308.72a4.16,4.16,0,0,0-5.18-1.36,3.89,3.89,0,0,0-2.22,3.46l.08,8.38a46.17,46.17,0,0,1-7.25,0l-.49-18.89a31.42,31.42,0,0,1,7.51-.19l0,2.44a8,8,0,0,1,5.45-2.55,8.79,8.79,0,0,1,7.17,3.38Z" transform="translate(-50.8 -217.76)"/><path class="efe7d13f-3662-447d-bcf3-85f46276cd12" d="M287.94,319.39a27.16,27.16,0,0,1-7.59.11l.34-9a5.78,5.78,0,0,0-.49-2.48,3.46,3.46,0,0,0-4.65-1.24s-2.78,1.54-2.82,5.9l-.08,6.23a45.73,45.73,0,0,1-7.21-.22l0-18.11a31.45,31.45,0,0,1,7.51,0l-.07,2.37c1.8-2.26,5.37-3,8-2.52,4.77.86,7.14,4.81,7.1,9.58Z" transform="translate(-50.8 -217.76)"/><path class="efe7d13f-3662-447d-bcf3-85f46276cd12" d="M311.31,311.5l-14.58.07c.53,1.35,2.82,2.18,4.13,2.18a14.07,14.07,0,0,0,6.43-1.46l.11-.08a23.76,23.76,0,0,1,2.56,5.3c-2.3,1.88-6.54,2.59-9.43,2.59-5.79,0-11.42-4.4-11.42-10.48s5.67-10.22,11.42-10.22,10.85,4.13,10.85,10.22A16.88,16.88,0,0,1,311.31,311.5ZM300.53,305c-1.77,0-3.76.9-4,2.82l7.62-.15C303.68,305.64,302.48,305,300.53,305Z" transform="translate(-50.8 -217.76)"/><path class="efe7d13f-3662-447d-bcf3-85f46276cd12" d="M318.78,319.8c-.82,0-1.69,0-2.52-.11L316,306.12l-4.81.12a21.26,21.26,0,0,1-.18-2.63,18,18,0,0,1,.22-2.86l4.66-.19-.15-8.15a28.44,28.44,0,0,1,6.42-.75c.53,0,1,0,1.62,0l.07,8.6,5.45-.22c0,.6.11,1.2.11,1.8a13.58,13.58,0,0,1-.6,3.91l-4.92.15.11,13.48A39.23,39.23,0,0,1,318.78,319.8Z" transform="translate(-50.8 -217.76)"/><path class="efe7d13f-3662-447d-bcf3-85f46276cd12" d="M365.36,318.9a37.29,37.29,0,0,1-4.47.3,38.11,38.11,0,0,1-4.13-.23V311.5l-6,.07.22,7.78a38,38,0,0,1-5,.34c-1.17,0-2.29-.08-3.46-.19l-.75-25.77a33.42,33.42,0,0,1,4.81-.34,30.24,30.24,0,0,1,3.68.19l.34,12.17a28.77,28.77,0,0,1,3.08-.19,27,27,0,0,1,3,.19V294a36.71,36.71,0,0,1,5-.38,33.09,33.09,0,0,1,3.87.23Z" transform="translate(-50.8 -217.76)"/><path class="efe7d13f-3662-447d-bcf3-85f46276cd12" d="M378.51,319.84c-6.31,0-11.42-4.59-11.42-10.22s5.11-10.22,11.42-10.22,11.42,4.58,11.42,10.22S384.82,319.84,378.51,319.84Zm-.45-14.2a3.66,3.66,0,0,0-3.61,4.13,4.08,4.08,0,0,0,4.28,3.87,3.7,3.7,0,0,0,3.61-4.14A4,4,0,0,0,378.06,305.64Z" transform="translate(-50.8 -217.76)"/><path class="efe7d13f-3662-447d-bcf3-85f46276cd12" d="M397.89,319.8c-.83,0-1.69,0-2.52-.11l-.26-13.57-4.81.12a21.26,21.26,0,0,1-.18-2.63,18,18,0,0,1,.22-2.86l4.66-.19-.15-8.15a28.44,28.44,0,0,1,6.42-.75c.53,0,1.05,0,1.62,0l.07,8.6,5.45-.22c0,.6.11,1.2.11,1.8a13.58,13.58,0,0,1-.6,3.91l-4.92.15.11,13.48A39.35,39.35,0,0,1,397.89,319.8Z" transform="translate(-50.8 -217.76)"/><path class="efe7d13f-3662-447d-bcf3-85f46276cd12" d="M410.32,318.3a10.46,10.46,0,0,1-.22-2.15,12.89,12.89,0,0,1,.68-3.83,18.74,18.74,0,0,0,7.92,2c.83,0,3.95,0,4.28-.75,0-.9-3.86-.94-4.35-1-4.21-.23-9.77-1.24-9.77-6.54s6.91-7.14,11.08-7.14a26.08,26.08,0,0,1,8.12,1.39,15.61,15.61,0,0,1,.18,2.29,13.41,13.41,0,0,1-.56,3.65,18.16,18.16,0,0,0-6.65-1.32c-.56,0-4.17,0-4.17,1.13,0,.56,3.46.52,4,.56,4.06,0,9.05,2,9.05,6.73,0,6.05-6.31,6.91-11,6.91A25.71,25.71,0,0,1,410.32,318.3Z" transform="translate(-50.8 -217.76)"/><path class="efe7d13f-3662-447d-bcf3-85f46276cd12" d="M446.28,319.57a8,8,0,0,1-7.56-2.48l.08,9.62a31.45,31.45,0,0,1-7.51,0l-.23-26a42.42,42.42,0,0,1,7.21-.26l0,1.8c1.09-1.31,2.89-2,5.11-2.29a9.9,9.9,0,0,1,2.86,19.57Zm-5.11-6.31a4.71,4.71,0,0,0,5.44-1.58,3.37,3.37,0,0,0-1.72-4.84,4.69,4.69,0,0,0-5.45,1.61A3.3,3.3,0,0,0,441.17,313.26Z" transform="translate(-50.8 -217.76)"/><path class="efe7d13f-3662-447d-bcf3-85f46276cd12" d="M466.56,319.84c-6.31,0-11.42-4.59-11.42-10.22s5.11-10.22,11.42-10.22S478,304,478,309.62,472.87,319.84,466.56,319.84Zm-.45-14.2a3.66,3.66,0,0,0-3.61,4.13,4.08,4.08,0,0,0,4.29,3.87,3.7,3.7,0,0,0,3.6-4.14A4,4,0,0,0,466.11,305.64Z" transform="translate(-50.8 -217.76)"/><path class="efe7d13f-3662-447d-bcf3-85f46276cd12" d="M485.94,319.8c-.82,0-1.69,0-2.51-.11l-.27-13.57-4.81.12a21.26,21.26,0,0,1-.18-2.63,18,18,0,0,1,.22-2.86l4.66-.19-.15-8.15a28.44,28.44,0,0,1,6.42-.75c.53,0,1.06,0,1.62,0l.07,8.6,5.45-.22c0,.6.11,1.2.11,1.8a13.58,13.58,0,0,1-.6,3.91l-4.92.15.12,13.48A39.5,39.5,0,0,1,485.94,319.8Z" transform="translate(-50.8 -217.76)"/><path class="baaeef72-67d5-40ae-84a7-5e1e5fa60725" d="M256.58,335.38l16.54,16.54,16.54-16.54a26.13,26.13,0,0,0-33.08,0Z" transform="translate(-50.8 -217.76)"/><path class="f5388c16-fbc0-4b0d-9ffa-0acfa6f64812" d="M227.79,273.49s22-14.51,45.33-14.51,45.34,14.51,45.34,14.51" transform="translate(-50.8 -217.76)"/><path class="ed72b8d3-b813-4a2f-942d-e469660cac9b" d="M203.57,249s33.7-22.25,69.55-22.25S342.68,249,342.68,249" transform="translate(-50.8 -217.76)"/></svg>