<svg xmlns="http://www.w3.org/2000/svg" xmlns:xlink="http://www.w3.org/1999/xlink" viewBox="0 0 500 100"><defs><style>.\30 23d9020-4278-4c90-9eaf-e78f823737b5,.\30 485f487-a2b0-48e4-8c32-23f6689e7666,.\31 e1d14e1-39ef-49a5-bade-9857cd876152,.\33 a280591-1d01-4e2b-90b3-fc6b28141410,.\33 e499053-2f0f-4242-b5a5-5b55f4ecae96,.\35 d5f3f3a-a348-44f9-87cf-cada864f4554,.\36 3769a70-43bf-4a5d-b122-ab9f93f7a6f5,.\37 ebf57c9-e795-41ab-956a-7ec8c6d2d204,.\37 f9c55e6-9b07-44fb-bb81-f0685e162c1a,.a567003d-2bbf-4868-9cad-76a220c52dd8,.a78fd8f3-238e-4e5f-9c8b-9002f01ddce1,.d7226e75-e1da-4980-afe7-fc205d6ee0db,.df080fa2-9b1a-4dc0-af1d-8b62a6fb4d73,.ebca5809-2969-4548-9d91-26f44ebec11f,.ef6b8de0-0617-4e54-852b-4e380fd738e5{fill:none;}.\30 23d9020-4278-4c90-9eaf-e78f823737b5,.\30 485f487-a2b0-48e4-8c32-23f6689e7666,.\31 e1d14e1-39ef-49a5-bade-9857cd876152,.\33 a280591-1d01-4e2b-90b3-fc6b28141410,.\33 e499053-2f0f-4242-b5a5-5b55f4ecae96,.\35 d5f3f3a-a348-44f9-87cf-cada864f4554,.\36 3769a70-43bf-4a5d-b122-ab9f93f7a6f5,.\37 ebf57c9-e795-41ab-956a-7ec8c6d2d204,.\37 f9c55e6-9b07-44fb-bb81-f0685e162c1a,.a567003d-2bbf-4868-9cad-76a220c52dd8,.a78fd8f3-238e-4e5f-9c8b-9002f01ddce1,.d7226e75-e1da-4980-afe7-fc205d6ee0db,.df080fa2-9b1a-4dc0-af1d-8b62a6fb4d73,.ebca5809-2969-4548-9d91-26f44ebec11f{stroke-miterlimit:10;}.\33 e499053-2f0f-4242-b5a5-5b55f4ecae96{stroke:url(#a89fcec9-df51-4bb4-8909-6c0753f2bff0);}.\38 184b728-9104-41d7-9cd7-5ee1f19f5513{fill:url(#5cf6dd40-a93a-4e91-a6c6-a62b5a34732e);}.be81ca7b-6057-41e1-a1ca-921960c9b058{fill:url(#afd03273-ce03-4bcf-a895-708aa16e15de);}.c3b1e148-dc20-4168-9f07-2019abcf2f09{fill:url(#605ff295-452c-46c4-b369-1b5584fa1c33);}.\31 97b0092-cf1e-4820-87ce-8604d4db20d1{fill:url(#db70e475-6fd8-43d6-b9d1-bc9d4bfc81c1);}.\32 5c67f73-046f-4d5a-a941-fb3f47a574e4{fill:url(#45e59387-435a-4eb2-a2ca-54e14d61c65d);}.\30 485f487-a2b0-48e4-8c32-23f6689e7666{stroke:url(#51158d07-d2cc-4588-b445-0de262c46ea9);}.\37 f9c55e6-9b07-44fb-bb81-f0685e162c1a{stroke:url(#1303a725-e52d-40b2-b62e-fca49db85a3f);}.d7226e75-e1da-4980-afe7-fc205d6ee0db{stroke:url(#da4c9f04-b863-47b0-8962-5e27b1d44e5b);}.\38 3ce2a5e-0e58-4fb0-90b0-47b38afb8e14{fill:url(#5a2b7e4c-2dc2-4831-9223-6daa35a2bae0);}.a94550b3-b92e-4a9e-8f6f-5c3ce1924f10{fill:url(#b4f6ed3e-3da0-43be-8954-7ebd566ca13b);}.\39 0758fb2-8c00-45a5-9563-a9520b1f9e48{fill:url(#1a290d7c-b204-4834-8821-8d1d220f8b48);}.d6534368-26f8-4cde-9fba-a8838071d8ae{fill:url(#cad9c02a-9ec9-4c60-bfb8-9242bcfc0ab4);}.ae6327fa-b3db-43d3-a724-33e3523a8543{fill:url(#7aacae1a-9d60-4bfe-8dd9-88dd78bf7549);}.c520cdda-6627-40c4-bc5b-02ced134e4b6{fill:url(#c8906bb5-13d1-499c-87a8-eef627ce57af);}.\37 ebf57c9-e795-41ab-956a-7ec8c6d2d204{stroke:url(#96d16245-1bc2-40c7-99f5-1b902b274f18);}.a567003d-2bbf-4868-9cad-76a220c52dd8{stroke:url(#92fcc791-e677-41ec-ae2f-86b98f3bb425);}.\30 23d9020-4278-4c90-9eaf-e78f823737b5,.\31 e1d14e1-39ef-49a5-bade-9857cd876152,.\35 d5f3f3a-a348-44f9-87cf-cada864f4554,.\36 3769a70-43bf-4a5d-b122-ab9f93f7a6f5,.df080fa2-9b1a-4dc0-af1d-8b62a6fb4d73,.ebca5809-2969-4548-9d91-26f44ebec11f{stroke-width:0.75px;}.\35 d5f3f3a-a348-44f9-87cf-cada864f4554{stroke:url(#2222617e-bc0b-4f95-937e-60e0b55085cc);}.\31 e1d14e1-39ef-49a5-bade-9857cd876152{stroke:url(#0d58ca3a-ee32-449f-aa74-5b1482507504);}.ebca5809-2969-4548-9d91-26f44ebec11f{stroke:url(#5b64dd8b-1fb4-47ae-9a95-1a34be875a59);}.\30 23d9020-4278-4c90-9eaf-e78f823737b5{stroke:url(#97ec65c2-2c38-4ca5-b636-99f063e71859);}.\36 3769a70-43bf-4a5d-b122-ab9f93f7a6f5{stroke:url(#3fbccff4-8c80-4f0d-a316-fdbde3cdae4d);}.df080fa2-9b1a-4dc0-af1d-8b62a6fb4d73{stroke:url(#efdc1311-d5b0-4e0d-824c-b8969e581288);}.\33 a280591-1d01-4e2b-90b3-fc6b28141410{stroke:url(#907279d8-b1f9-4740-9f20-8a9848a3e2d5);}.a78fd8f3-238e-4e5f-9c8b-9002f01ddce1{stroke-linecap:round;stroke:url(#c5b62b2c-ea5c-49a4-88ca-6173dc55d13f);}</style><linearGradient id="a89fcec9-df51-4bb4-8909-6c0753f2bff0" x1="-48.17" y1="32.3" x2="79.41" y2="32.3" gradientTransform="matrix(1, -0.09, 0.09, 1, -2.74, 4.38)" gradientUnits="userSpaceOnUse"><stop offset="0" stop-color="#0fe"/><stop offset="1" stop-color="#d585ff"/></linearGradient><linearGradient id="5cf6dd40-a93a-4e91-a6c6-a62b5a34732e" x1="96.48" y1="64.91" x2="141.44" y2="64.91" gradientTransform="matrix(1, 0, 0, 1, 0, 0)" xlink:href="#a89fcec9-df51-4bb4-8909-6c0753f2bff0"/><linearGradient id="afd03273-ce03-4bcf-a895-708aa16e15de" x1="96.49" y1="64.91" x2="141.43" y2="64.91" gradientTransform="matrix(1, 0, 0, 1, 0, 0)" xlink:href="#a89fcec9-df51-4bb4-8909-6c0753f2bff0"/><linearGradient id="605ff295-452c-46c4-b369-1b5584fa1c33" x1="106.53" y1="64.91" x2="131.39" y2="64.91" gradientTransform="matrix(1, 0, 0, 1, 0, 0)" xlink:href="#a89fcec9-df51-4bb4-8909-6c0753f2bff0"/><linearGradient id="db70e475-6fd8-43d6-b9d1-bc9d4bfc81c1" x1="110.69" y1="64.91" x2="127.23" y2="64.91" gradientTransform="matrix(1, 0, 0, 1, 0, 0)" xlink:href="#a89fcec9-df51-4bb4-8909-6c0753f2bff0"/><linearGradient id="45e59387-435a-4eb2-a2ca-54e14d61c65d" x1="97.95" y1="64.91" x2="139.97" y2="64.91" gradientTransform="matrix(1, 0, 0, 1, 0, 0)" xlink:href="#a89fcec9-df51-4bb4-8909-6c0753f2bff0"/><linearGradient id="51158d07-d2cc-4588-b445-0de262c46ea9" x1="278.21" y1="59.56" x2="317.53" y2="59.56" gradientTransform="translate(-7.25 39.63) rotate(-7.47)" xlink:href="#a89fcec9-df51-4bb4-8909-6c0753f2bff0"/><linearGradient id="1303a725-e52d-40b2-b62e-fca49db85a3f" x1="18.7" y1="-56.76" x2="36.16" y2="-56.76" gradientTransform="translate(237.91 40.27) rotate(82.53)" xlink:href="#a89fcec9-df51-4bb4-8909-6c0753f2bff0"/><linearGradient id="da4c9f04-b863-47b0-8962-5e27b1d44e5b" x1="185.2" y1="41.62" x2="228.51" y2="41.62" gradientTransform="translate(0.1 -2.58)" xlink:href="#a89fcec9-df51-4bb4-8909-6c0753f2bff0"/><linearGradient id="5a2b7e4c-2dc2-4831-9223-6daa35a2bae0" x1="192.51" y1="45.15" x2="193.64" y2="45.15" gradientTransform="translate(0.45 -1.43)" xlink:href="#a89fcec9-df51-4bb4-8909-6c0753f2bff0"/><linearGradient id="b4f6ed3e-3da0-43be-8954-7ebd566ca13b" x1="198" y1="43.24" x2="199.13" y2="43.24" gradientTransform="translate(0.27 -1.89)" xlink:href="#a89fcec9-df51-4bb4-8909-6c0753f2bff0"/><linearGradient id="1a290d7c-b204-4834-8821-8d1d220f8b48" x1="203.49" y1="43.24" x2="204.62" y2="43.24" gradientTransform="translate(0.25 -2.35)" xlink:href="#a89fcec9-df51-4bb4-8909-6c0753f2bff0"/><linearGradient id="cad9c02a-9ec9-4c60-bfb8-9242bcfc0ab4" x1="208.98" y1="45.81" x2="210.11" y2="45.81" gradientTransform="translate(0.45 -2.83)" xlink:href="#a89fcec9-df51-4bb4-8909-6c0753f2bff0"/><linearGradient id="7aacae1a-9d60-4bfe-8dd9-88dd78bf7549" x1="214.47" y1="42.35" x2="215.6" y2="42.35" gradientTransform="translate(0.14 -3.28)" xlink:href="#a89fcec9-df51-4bb4-8909-6c0753f2bff0"/><linearGradient id="c8906bb5-13d1-499c-87a8-eef627ce57af" x1="219.96" y1="44.13" x2="221.09" y2="44.13" gradientTransform="translate(0.27 -3.75)" xlink:href="#a89fcec9-df51-4bb4-8909-6c0753f2bff0"/><linearGradient id="96d16245-1bc2-40c7-99f5-1b902b274f18" x1="349.82" y1="36.96" x2="406.48" y2="36.96" gradientTransform="translate(0.93 82.47) rotate(-12.46)" xlink:href="#a89fcec9-df51-4bb4-8909-6c0753f2bff0"/><linearGradient id="92fcc791-e677-41ec-ae2f-86b98f3bb425" x1="357.08" y1="31.87" x2="366.01" y2="31.87" gradientTransform="translate(-0.71 3.7)" xlink:href="#a89fcec9-df51-4bb4-8909-6c0753f2bff0"/><linearGradient id="2222617e-bc0b-4f95-937e-60e0b55085cc" x1="392.2" y1="36.85" x2="396.57" y2="36.85" gradientTransform="translate(0.93 82.47) rotate(-12.46)" xlink:href="#a89fcec9-df51-4bb4-8909-6c0753f2bff0"/><linearGradient id="0d58ca3a-ee32-449f-aa74-5b1482507504" x1="423.11" y1="-175.43" x2="427.49" y2="-175.43" gradientTransform="translate(126.23 -347.02) rotate(77.54)" xlink:href="#a89fcec9-df51-4bb4-8909-6c0753f2bff0"/><linearGradient id="5b64dd8b-1fb4-47ae-9a95-1a34be875a59" x1="207.55" y1="-13.16" x2="211.93" y2="-13.16" gradientTransform="translate(455.05 230.67) rotate(-102.46)" xlink:href="#a89fcec9-df51-4bb4-8909-6c0753f2bff0"/><linearGradient id="97ec65c2-2c38-4ca5-b636-99f063e71859" x1="230.41" y1="-219.04" x2="234.79" y2="-219.04" gradientTransform="translate(572.13 -238.39) rotate(167.54)" xlink:href="#a89fcec9-df51-4bb4-8909-6c0753f2bff0"/><linearGradient id="3fbccff4-8c80-4f0d-a316-fdbde3cdae4d" x1="369.99" y1="41.31" x2="376.03" y2="41.31" gradientTransform="translate(1.06 1.01)" xlink:href="#a89fcec9-df51-4bb4-8909-6c0753f2bff0"/><linearGradient id="efdc1311-d5b0-4e0d-824c-b8969e581288" x1="380.27" y1="41.31" x2="386.31" y2="41.31" gradientTransform="translate(0.82 -1.21)" xlink:href="#a89fcec9-df51-4bb4-8909-6c0753f2bff0"/><linearGradient id="907279d8-b1f9-4740-9f20-8a9848a3e2d5" x1="440.78" y1="60.05" x2="477.1" y2="60.05" gradientTransform="translate(22 -97.39) rotate(12.41)" xlink:href="#a89fcec9-df51-4bb4-8909-6c0753f2bff0"/><linearGradient id="c5b62b2c-ea5c-49a4-88ca-6173dc55d13f" x1="447.69" y1="41.3" x2="470.19" y2="41.3" gradientTransform="translate(22 -97.39) rotate(12.41)" xlink:href="#a89fcec9-df51-4bb4-8909-6c0753f2bff0"/></defs><title>supericon</title><g id="5059865e-3aae-4005-85c4-bb5c309d20be" data-name="Layer 1"><rect class="ef6b8de0-0617-4e54-852b-4e380fd738e5" width="500" height="100"/></g><g id="2574b84a-f132-469c-b38b-211e86bb920b" data-name="Layer 3"><path class="3e499053-2f0f-4242-b5a5-5b55f4ecae96" d="M51,44.9,39.11,46l-10.29.94a5.52,5.52,0,0,1-5.26-2.66A9.77,9.77,0,0,1,34.77,29.94a11.63,11.63,0,0,1,20.51-6.37A12.67,12.67,0,0,1,72,33.73l0,.19a8.78,8.78,0,0,1-8,9.78L51,44.9,39.11,46"/><path class="8184b728-9104-41d7-9cd7-5ee1f19f5513" d="M127,85.88a22.46,22.46,0,1,1,12.49-11.82A22.34,22.34,0,0,1,127,85.88ZM111.21,44.66a21.68,21.68,0,1,0,28,12.49A21.72,21.72,0,0,0,111.21,44.66Z"/><path class="be81ca7b-6057-41e1-a1ca-921960c9b058" d="M123.51,76.79a138.55,138.55,0,0,1-18.35,5.67.39.39,0,0,1-.33-.07,22.45,22.45,0,0,1-8.05-21,.38.38,0,0,1,.19-.27,146.37,146.37,0,0,1,35.79-13.7.38.38,0,0,1,.33.07,22.45,22.45,0,0,1,8.05,21,.39.39,0,0,1-.19.27A138.49,138.49,0,0,1,123.51,76.79Zm-18.34,4.88a138,138,0,0,0,18.06-5.6,138,138,0,0,0,17.18-7.89,21.69,21.69,0,0,0-7.66-20A145.7,145.7,0,0,0,97.51,61.65a21.69,21.69,0,0,0,7.66,20Z"/><path class="c3b1e148-dc20-4168-9f07-2019abcf2f09" d="M127,85.88c-2.58,1-5.83-.31-9.16-3.66a40.15,40.15,0,0,1-8.33-13.68,40.15,40.15,0,0,1-2.93-15.75c.24-4.71,1.79-7.85,4.37-8.84s5.83.31,9.15,3.66a40.16,40.16,0,0,1,8.33,13.68A40.17,40.17,0,0,1,131.36,77C131.12,81.75,129.57,84.89,127,85.88ZM111.21,44.66c-2.28.87-3.66,3.77-3.88,8.16a39.38,39.38,0,0,0,2.88,15.43,39.38,39.38,0,0,0,8.16,13.42c3.1,3.12,6.05,4.36,8.34,3.48s3.66-3.77,3.88-8.16a39.39,39.39,0,0,0-2.89-15.44,39.39,39.39,0,0,0-8.15-13.42C116.45,45,113.49,43.79,111.21,44.66Z"/><path class="197b0092-cf1e-4820-87ce-8604d4db20d1" d="M127,85.88a.38.38,0,0,1-.5-.22L110.72,44.44a.38.38,0,0,1,.72-.27l15.77,41.21A.38.38,0,0,1,127,85.88Z"/><path class="25c67f73-046f-4d5a-a941-fb3f47a574e4" d="M139.72,57.38,98.47,73.17a.38.38,0,1,1-.27-.72l41.26-15.79a.38.38,0,0,1,.27.72Z"/><path class="0485f487-a2b0-48e4-8c32-23f6689e7666" d="M285.86,43.6a19.14,19.14,0,1,1-8.5,11.27"/><path class="7f9c55e6-9b07-44fb-bb81-f0685e162c1a" d="M303.94,57.66l-11.78-4.89a1.85,1.85,0,0,0-2.54,1.95l1.66,12.64a1.85,1.85,0,0,0,3,1.23l10.12-7.76A1.85,1.85,0,0,0,303.94,57.66Z"/><rect class="d7226e75-e1da-4980-afe7-fc205d6ee0db" x="185.8" y="24.93" width="42.32" height="28.21" transform="translate(-2.56 17.65) rotate(-4.85)"/><rect class="83ce2a5e-0e58-4fb0-90b0-47b38afb8e14" x="192.96" y="37.04" width="1.13" height="13.36" rx="0.57" ry="0.57" transform="translate(-3 16.53) rotate(-4.85)"/><rect class="a94550b3-b92e-4a9e-8f6f-5c3ce1924f10" x="198.27" y="32.76" width="1.13" height="17.19" rx="0.57" ry="0.57" transform="translate(-2.79 16.97) rotate(-4.85)"/><rect class="90758fb2-8c00-45a5-9563-a9520b1f9e48" x="203.74" y="32.29" width="1.13" height="17.19" rx="0.57" ry="0.57" transform="translate(-2.73 17.43) rotate(-4.85)"/><rect class="d6534368-26f8-4cde-9fba-a8838071d8ae" x="209.43" y="36.95" width="1.13" height="12.05" rx="0.57" ry="0.57" transform="matrix(1, -0.08, 0.08, 1, -2.88, 17.92)"/><rect class="ae6327fa-b3db-43d3-a724-33e3523a8543" x="214.6" y="29.58" width="1.13" height="18.97" rx="0.57" ry="0.57" transform="translate(-2.53 18.34) rotate(-4.85)"/><rect class="c520cdda-6627-40c4-bc5b-02ced134e4b6" x="220.23" y="32.67" width="1.13" height="15.41" rx="0.57" ry="0.57" transform="translate(-2.62 18.82) rotate(-4.85)"/><path class="7ebf57c9-e795-41ab-956a-7ec8c6d2d204" d="M399.84,21.6l0,0a8.46,8.46,0,0,0-8.75-3.35l-6.19,1.37L373.69,22l-15.15,3.35A8.46,8.46,0,0,0,352,32.11v.06c-1.3,7.3-.82,14.08,1,18.68,1.28,3.3,3.24,5.48,5.7,5.91,4,.7,8.21-3.23,11.26-9.66l19.94-4.41c5.48,4.54,11,6.32,14.29,4,2.05-1.44,2.91-4.24,2.68-7.77C406.52,34,404.1,27.67,399.84,21.6Z"/><circle class="a567003d-2bbf-4868-9cad-76a220c52dd8" cx="360.84" cy="35.58" r="3.97" transform="translate(0.82 78.7) rotate(-12.46)"/><path class="5d5f3f3a-a348-44f9-87cf-cada864f4554" d="M392.87,32.36l-.49,1.56a1,1,0,0,0,1.16,1.27l1.59-.35a1,1,0,0,0,.52-1.64l-1.1-1.2A1,1,0,0,0,392.87,32.36Z"/><path class="1e1d14e1-39ef-49a5-bade-9857cd876152" d="M390.3,29.3l-1.56-.49A1,1,0,0,0,387.47,30l.35,1.59a1,1,0,0,0,1.64.52l1.2-1.1A1,1,0,0,0,390.3,29.3Z"/><path class="ebca5809-2969-4548-9d91-26f44ebec11f" d="M396,29.81l1.56.49a1,1,0,0,0,1.27-1.16l-.35-1.59a1,1,0,0,0-1.64-.52l-1.2,1.1A1,1,0,0,0,396,29.81Z"/><path class="023d9020-4278-4c90-9eaf-e78f823737b5" d="M393.38,26.67l.49-1.56a1,1,0,0,0-1.16-1.27l-1.59.35a1,1,0,0,0-.52,1.64l1.1,1.2A1,1,0,0,0,393.38,26.67Z"/><rect class="63769a70-43bf-4a5d-b122-ab9f93f7a6f5" x="371.43" y="41.81" width="5.28" height="1.02" rx="0.51" ry="0.51" transform="translate(-0.32 81.72) rotate(-12.46)"/><rect class="df080fa2-9b1a-4dc0-af1d-8b62a6fb4d73" x="381.47" y="39.59" width="5.28" height="1.02" rx="0.51" ry="0.51" transform="translate(0.4 83.83) rotate(-12.46)"/><polygon class="3a280591-1d01-4e2b-90b3-fc6b28141410" points="471.21 78.75 436.78 71.18 445.37 41.43 475.89 48.15 471.21 78.75"/><path class="a78fd8f3-238e-4e5f-9c8b-9002f01ddce1" d="M448.31,50.78l3.12-14.18a9.11,9.11,0,0,1,10.82-6.92l3.26.72a9.11,9.11,0,0,1,6.92,10.82L469.31,55.4"/></g></svg>