<svg xmlns="http://www.w3.org/2000/svg" xmlns:xlink="http://www.w3.org/1999/xlink" viewBox="0 0 500 100"><defs><style>.\32 024d985-71ef-4e00-ba34-2a4dc85f86ae{fill:none;}.\33 c9aec59-fc39-46a8-8428-5f6a38183270{fill:url(#7b4e3cf1-eb6b-4bb9-8a7d-aa7d00cadd57);}.\34 3dbe613-6b8e-4fef-8a5b-5fecc9597bc4{fill:url(#36a28d07-59bd-454b-94bb-426a0fbb2240);}.\35 852e189-36ef-4f66-8c2d-5cb4450a993b{fill:url(#78bf6fb2-02bc-4b94-a160-c01a3bcabf79);}.\36 ef610a0-c6cd-4518-b938-572f41d53e51{fill:url(#f8bd4744-672a-42a1-889f-4e80e5c82b21);}.d1358239-889c-4af5-b4ab-73358a481a83{fill:url(#104283d7-366c-4bba-9afd-36000ec8c9f8);}.aea882b5-a3c6-4641-898d-c2a13a58c616{fill:url(#479d7716-017f-4cd8-9091-7ad2520017ce);}.a723da19-a85b-4798-83e5-ad61d060d8ee{fill:url(#9cdfd3b6-69bb-4bc4-9378-9922d88faab1);}.\34 9b8a737-0885-4c0d-afa2-2b732ff26e68{fill:url(#dc134a8b-aae2-4e66-9f92-060711a160b7);}.b0b173e2-81e6-4077-9cf6-161b370d39ec{fill:url(#95efbc5d-f134-4c7b-9b30-3d709faa5653);}.e1b545d3-5f17-4653-93d0-80b326ff4119{fill:url(#748cca99-13cb-444a-90c6-628888d5dec8);}.a2eb4410-b19a-47e9-8acd-968b9f5169fa{fill:url(#ed62ebca-917f-44db-8329-c2274ade0e90);}.\33 f32809c-b079-42dc-b827-31d498647d44{fill:url(#a953069c-1020-45be-84c7-de5a049660e9);}.e09f9767-1906-4ac3-a06b-a70e7d5417e4{fill:url(#847ccd64-f638-4079-9b69-8fa72094858a);}.\32 84ef871-ad72-4164-ad2d-ec66346f03d3{fill:url(#0148277d-7ef4-4118-9ffe-8e06c501fe42);}.b60c0f41-e2bd-4fa6-a748-c38b2419b037{fill:url(#6d66b489-83b9-4c99-8d0f-379a08550ebb);}.c85eee38-c446-4462-ba0e-bac1e009fcfe{fill:url(#56347777-d4bf-4d2f-8af3-0f3e9d763c47);}.\37 8254495-9a6b-4815-91dc-3bc9ceada5cb{fill:url(#ced6ef4a-d99c-4270-ba8c-8a735e2f6631);}.f7d2f25a-3ba0-4ca3-9842-0446d43a3b57{fill:url(#f679897f-dd5e-4924-b0f6-08a1a1f3e504);}.\39 691e229-6c6b-4922-9ed9-72d615a5d072{fill:url(#2d12e77d-c768-4d2a-836c-10d6c8fa31a4);}.c2b5d80f-27ac-4627-b026-706b016ac006{fill:url(#b96417e1-d5f8-4c52-83a8-db516a14d76e);}.\38 3b6db37-9a79-4580-8221-80280b03d656{fill:url(#4eb58a73-341c-4ad7-ac8a-fe80677a085f);}.\39 f5b30f9-a8b6-4fa9-8fac-71b4062e5fe8{fill:url(#e58b2ed8-5a07-4fa7-aa15-7de0ca6df36c);}.\39 0a99773-3384-49ff-ab6f-cfd4428d6aee{fill:url(#1f8d46c2-4230-4cc1-b2c0-e241955fb6de);}.cdd54301-2028-4694-bfc9-14e6f4fb90f2{fill:url(#e39d3853-b1b3-4c0e-b249-2d0752e27d77);}.\30 b964195-4c13-42df-b4c7-66c7c0cf255f{fill:url(#62577d7b-aa22-4c4e-8c1a-68b2c1069012);}</style><linearGradient id="7b4e3cf1-eb6b-4bb9-8a7d-aa7d00cadd57" x1="21.21" y1="33.17" x2="73.13" y2="33.17" gradientUnits="userSpaceOnUse"><stop offset="0" stop-color="#63e2ff"/><stop offset="1" stop-color="#b066fe"/></linearGradient><linearGradient id="36a28d07-59bd-454b-94bb-426a0fbb2240" x1="95.48" y1="64.91" x2="142.44" y2="64.91" xlink:href="#7b4e3cf1-eb6b-4bb9-8a7d-aa7d00cadd57"/><linearGradient id="78bf6fb2-02bc-4b94-a160-c01a3bcabf79" x1="95.49" y1="64.91" x2="142.43" y2="64.91" xlink:href="#7b4e3cf1-eb6b-4bb9-8a7d-aa7d00cadd57"/><linearGradient id="f8bd4744-672a-42a1-889f-4e80e5c82b21" x1="106.3" y1="64.91" x2="131.62" y2="64.91" xlink:href="#7b4e3cf1-eb6b-4bb9-8a7d-aa7d00cadd57"/><linearGradient id="104283d7-366c-4bba-9afd-36000ec8c9f8" x1="109.69" y1="64.96" x2="127.42" y2="64.96" xlink:href="#7b4e3cf1-eb6b-4bb9-8a7d-aa7d00cadd57"/><linearGradient id="479d7716-017f-4cd8-9091-7ad2520017ce" x1="96.95" y1="64.91" x2="140.97" y2="64.91" xlink:href="#7b4e3cf1-eb6b-4bb9-8a7d-aa7d00cadd57"/><linearGradient id="9cdfd3b6-69bb-4bc4-9378-9922d88faab1" x1="275.67" y1="59.97" x2="316" y2="59.97" xlink:href="#7b4e3cf1-eb6b-4bb9-8a7d-aa7d00cadd57"/><linearGradient id="dc134a8b-aae2-4e66-9f92-060711a160b7" x1="288.6" y1="60.8" x2="306.08" y2="60.8" xlink:href="#7b4e3cf1-eb6b-4bb9-8a7d-aa7d00cadd57"/><linearGradient id="95efbc5d-f134-4c7b-9b30-3d709faa5653" x1="183.6" y1="39.03" x2="230.31" y2="39.03" xlink:href="#7b4e3cf1-eb6b-4bb9-8a7d-aa7d00cadd57"/><linearGradient id="748cca99-13cb-444a-90c6-628888d5dec8" x1="191.44" y1="43.72" x2="195.61" y2="43.72" xlink:href="#7b4e3cf1-eb6b-4bb9-8a7d-aa7d00cadd57"/><linearGradient id="ed62ebca-917f-44db-8329-c2274ade0e90" x1="196.59" y1="41.35" x2="201.08" y2="41.35" xlink:href="#7b4e3cf1-eb6b-4bb9-8a7d-aa7d00cadd57"/><linearGradient id="a953069c-1020-45be-84c7-de5a049660e9" x1="202.06" y1="40.88" x2="206.55" y2="40.88" xlink:href="#7b4e3cf1-eb6b-4bb9-8a7d-aa7d00cadd57"/><linearGradient id="847ccd64-f638-4079-9b69-8fa72094858a" x1="207.96" y1="42.98" x2="212.02" y2="42.98" xlink:href="#7b4e3cf1-eb6b-4bb9-8a7d-aa7d00cadd57"/><linearGradient id="0148277d-7ef4-4118-9ffe-8e06c501fe42" x1="212.85" y1="39.07" x2="217.49" y2="39.07" xlink:href="#7b4e3cf1-eb6b-4bb9-8a7d-aa7d00cadd57"/><linearGradient id="6d66b489-83b9-4c99-8d0f-379a08550ebb" x1="218.62" y1="40.38" x2="222.96" y2="40.38" xlink:href="#7b4e3cf1-eb6b-4bb9-8a7d-aa7d00cadd57"/><linearGradient id="56347777-d4bf-4d2f-8af3-0f3e9d763c47" x1="350.26" y1="37.42" x2="407.88" y2="37.42" xlink:href="#7b4e3cf1-eb6b-4bb9-8a7d-aa7d00cadd57"/><linearGradient id="ced6ef4a-d99c-4270-ba8c-8a735e2f6631" x1="356.37" y1="35.58" x2="365.31" y2="35.58" xlink:href="#7b4e3cf1-eb6b-4bb9-8a7d-aa7d00cadd57"/><linearGradient id="f679897f-dd5e-4924-b0f6-08a1a1f3e504" x1="391.83" y1="33.44" x2="396.42" y2="33.44" xlink:href="#7b4e3cf1-eb6b-4bb9-8a7d-aa7d00cadd57"/><linearGradient id="2d12e77d-c768-4d2a-836c-10d6c8fa31a4" x1="386.94" y1="30.55" x2="391.49" y2="30.55" xlink:href="#7b4e3cf1-eb6b-4bb9-8a7d-aa7d00cadd57"/><linearGradient id="b96417e1-d5f8-4c52-83a8-db516a14d76e" x1="394.76" y1="28.56" x2="399.31" y2="28.56" xlink:href="#7b4e3cf1-eb6b-4bb9-8a7d-aa7d00cadd57"/><linearGradient id="4eb58a73-341c-4ad7-ac8a-fe80677a085f" x1="389.83" y1="25.59" x2="394.42" y2="25.59" xlink:href="#7b4e3cf1-eb6b-4bb9-8a7d-aa7d00cadd57"/><linearGradient id="e58b2ed8-5a07-4fa7-aa15-7de0ca6df36c" x1="370.98" y1="42.32" x2="377.16" y2="42.32" xlink:href="#7b4e3cf1-eb6b-4bb9-8a7d-aa7d00cadd57"/><linearGradient id="1f8d46c2-4230-4cc1-b2c0-e241955fb6de" x1="381.02" y1="40.1" x2="387.2" y2="40.1" xlink:href="#7b4e3cf1-eb6b-4bb9-8a7d-aa7d00cadd57"/><linearGradient id="e39d3853-b1b3-4c0e-b249-2d0752e27d77" x1="435.53" y1="60.11" x2="477.02" y2="60.11" xlink:href="#7b4e3cf1-eb6b-4bb9-8a7d-aa7d00cadd57"/><linearGradient id="62577d7b-aa22-4c4e-8c1a-68b2c1069012" x1="447.33" y1="42.04" x2="473.64" y2="42.04" xlink:href="#7b4e3cf1-eb6b-4bb9-8a7d-aa7d00cadd57"/></defs><title>supericon</title><g id="f541f8f7-372a-4b7b-8cf5-4142064f71cf" data-name="Layer 1"><rect class="2024d985-71ef-4e00-ba34-2a4dc85f86ae" width="500" height="100"/></g><g id="93e990b3-6fae-4690-96fe-7348fb2a56cd" data-name="Layer 3"><path class="3c9aec59-fc39-46a8-8428-5f6a38183270" d="M28.31,47.95a6.53,6.53,0,0,1-5.61-3.17A10.78,10.78,0,0,1,33.94,28.71,12.63,12.63,0,0,1,55.6,22.42a14,14,0,0,1,4.13-.56A13.75,13.75,0,0,1,73,33.59l0,.2A9.57,9.57,0,0,1,71,41.05a9.92,9.92,0,0,1-6.79,3.65L28.91,47.92ZM32,30.53a9,9,0,0,0-1.77.18,8.83,8.83,0,0,0-7,8.92,8.69,8.69,0,0,0,1.21,4.13,4.52,4.52,0,0,0,4.31,2.17L64,42.7a7.8,7.8,0,0,0,5.42-2.91A7.59,7.59,0,0,0,71.07,34l0-.17a11.73,11.73,0,0,0-11.35-10,11.85,11.85,0,0,0-4.08.66l-.65.23-.44-.53A10.63,10.63,0,0,0,35.77,30l-.11,1.22-1.17-.35A8.69,8.69,0,0,0,32,30.53Z"/><path class="43dbe613-6b8e-4fef-8a5b-5fecc9597bc4" d="M118.93,88.38a23.55,23.55,0,1,1,8.41-1.57h0A23.48,23.48,0,0,1,118.93,88.38Zm0-44.93a21.46,21.46,0,1,0,7.65,41.49h0A21.46,21.46,0,0,0,119,43.45Z"/><path class="5852e189-36ef-4f66-8c2d-5cb4450a993b" d="M105.07,83.47a1.38,1.38,0,0,1-.86-.3,23.45,23.45,0,0,1-8.42-22,1.38,1.38,0,0,1,.7-1,147.33,147.33,0,0,1,36-13.79,1.39,1.39,0,0,1,1.18.27,23.45,23.45,0,0,1,8.41,22,1.38,1.38,0,0,1-.69,1,139.6,139.6,0,0,1-17.58,8.09,139.5,139.5,0,0,1-18.48,5.71A1.42,1.42,0,0,1,105.07,83.47ZM97.72,61.8a21.46,21.46,0,0,0,7.51,19.62,138.14,138.14,0,0,0,17.92-5.56h0A137.94,137.94,0,0,0,140.2,68a21.46,21.46,0,0,0-7.51-19.62,145.55,145.55,0,0,0-35,13.39Zm-.26.14h0ZM133,48.34h0Zm-.53-.12h0Z"/><path class="6ef610a0-c6cd-4518-b938-572f41d53e51" d="M125.2,86.43c-2.29,0-4.9-1.39-7.54-4a40.39,40.39,0,0,1-8.38-13.77,40.37,40.37,0,0,1-2.95-15.84c.24-4.81,1.85-8,4.52-9h0c2.67-1,6,.3,9.4,3.72a40.39,40.39,0,0,1,8.38,13.76,40.4,40.4,0,0,1,3,15.84c-.24,4.81-1.85,8-4.52,9A5.17,5.17,0,0,1,125.2,86.43ZM111.57,45.6c-1.86.71-3,3.36-3.24,7.28a38.36,38.36,0,0,0,2.82,15A38.38,38.38,0,0,0,119.08,81c2.76,2.78,5.41,4,7.27,3.25s3-3.36,3.24-7.27a38.39,38.39,0,0,0-2.82-15,38.38,38.38,0,0,0-7.93-13.07c-2.76-2.78-5.41-4-7.27-3.26Z"/><path class="d1358239-889c-4af5-b4ab-73358a481a83" d="M126.85,86.9a1.39,1.39,0,0,1-1.29-.89L109.78,44.8a1.39,1.39,0,0,1,.8-1.79l.72,1.87a.62.62,0,0,0,.35-.79L127.42,85.3a.62.62,0,0,0-.79-.35l.72,1.87A1.39,1.39,0,0,1,126.85,86.9Z"/><path class="aea882b5-a3c6-4641-898d-c2a13a58c616" d="M98.33,74.19a1.39,1.39,0,0,1-.56-.12,1.39,1.39,0,0,1,.07-2.56l.28.72,41.25-15.79a.62.62,0,0,0,.44,1.15l-.71-1.87a1.38,1.38,0,1,1,1,2.59L98.83,74.1A1.37,1.37,0,0,1,98.33,74.19Zm-.22-2,.44,1.15a.62.62,0,0,0,0-1.14.61.61,0,0,0-.47,0Z"/><path class="a723da19-a85b-4798-83e5-ad61d060d8ee" d="M295.79,80.13A20.18,20.18,0,0,1,276.4,54.6l1.93.53a18.14,18.14,0,1,0,8.06-10.68l-1-1.71A20.16,20.16,0,1,1,298.46,80,20.4,20.4,0,0,1,295.79,80.13Z"/><path class="49b8a737-0885-4c0d-afa2-2b732ff26e68" d="M293.12,70a2.87,2.87,0,0,1-1.1-.22,2.82,2.82,0,0,1-1.73-2.26l-1.66-12.64a2.85,2.85,0,0,1,3.92-3l11.78,4.89a2.85,2.85,0,0,1,.64,4.9l-10.12,7.76A2.83,2.83,0,0,1,293.12,70Zm-1.67-16.35a.86.86,0,0,0-.52.18.84.84,0,0,0-.33.79l1.66,12.64a.85.85,0,0,0,1.36.56L303.75,60a.85.85,0,0,0-.19-1.46l-11.78-4.89A.86.86,0,0,0,291.45,53.63Z"/><path class="b0b173e2-81e6-4077-9cf6-161b370d39ec" d="M186.16,56l-2.56-30.1,44.16-3.75,2.56,30.1Zm-.39-28.28L188,53.79l40.17-3.41-2.22-26.12Z"/><path class="e1b545d3-5f17-4653-93d0-80b326ff4119" d="M194,51.38a1.57,1.57,0,0,1-1.56-1.44l-1-12.18a1.57,1.57,0,0,1,3.12-.27l1,12.18a1.57,1.57,0,0,1-1.43,1.69Z"/><path class="a2eb4410-b19a-47e9-8acd-968b9f5169fa" d="M199.51,50.91A1.57,1.57,0,0,1,198,49.48l-1.36-16A1.57,1.57,0,0,1,198,31.79a1.58,1.58,0,0,1,1.69,1.43l1.36,16a1.57,1.57,0,0,1-1.43,1.69Z"/><path class="3f32809c-b079-42dc-b827-31d498647d44" d="M205,50.45A1.57,1.57,0,0,1,203.42,49l-1.36-16a1.57,1.57,0,0,1,3.12-.27l1.36,16a1.57,1.57,0,0,1-1.43,1.69Z"/><path class="e09f9767-1906-4ac3-a06b-a70e7d5417e4" d="M210.45,50a1.57,1.57,0,0,1-1.56-1.44L208,37.67a1.57,1.57,0,1,1,3.12-.26L212,48.28A1.57,1.57,0,0,1,210.59,50Z"/><path class="284ef871-ad72-4164-ad2d-ec66346f03d3" d="M215.93,49.52a1.57,1.57,0,0,1-1.56-1.44l-1.51-17.77a1.57,1.57,0,0,1,1.43-1.69A1.58,1.58,0,0,1,216,30l1.51,17.77a1.57,1.57,0,0,1-1.43,1.69Z"/><path class="b60c0f41-e2bd-4fa6-a748-c38b2419b037" d="M221.4,49.05a1.57,1.57,0,0,1-1.56-1.44L218.63,33.4a1.57,1.57,0,1,1,3.12-.26L223,47.35A1.57,1.57,0,0,1,221.53,49h-.13Z"/><path class="c85eee38-c446-4462-ba0e-bac1e009fcfe" d="M359.6,57.84a6.25,6.25,0,0,1-1.1-.1c-2.75-.49-5-2.75-6.46-6.54-1.93-5-2.3-12-1-19.22a9.44,9.44,0,0,1,7.31-7.58l32.52-7.19A9.42,9.42,0,0,1,400.63,21l0,0c4.22,6,6.83,12.53,7.17,17.86.26,4.05-.81,7-3.11,8.65-3.52,2.46-9.15,1.06-15.12-3.76l-19,4.2C367.54,54.26,363.5,57.84,359.6,57.84ZM392.93,19a7.64,7.64,0,0,0-1.66.18l-32.52,7.19A7.42,7.42,0,0,0,353,32.29c-1.23,6.95-.9,13.56.9,18.2.84,2.16,2.38,4.84,4.95,5.29,3.33.59,7.24-2.9,10.18-9.11l.21-.44,20.89-4.62.38.31c5.29,4.39,10.3,5.91,13.07,4,1.67-1.17,2.47-3.61,2.26-6.88-.32-5-2.8-11.11-6.82-16.84l0,0A7.39,7.39,0,0,0,392.93,19Z"/><path class="78254495-9a6b-4815-91dc-3bc9ceada5cb" d="M360.83,40a4.47,4.47,0,1,1,1-.11A4.53,4.53,0,0,1,360.83,40Zm0-7.94a3.47,3.47,0,0,0-3.39,4.22,3.47,3.47,0,1,0,3.39-4.22Z"/><path class="f7d2f25a-3ba0-4ca3-9842-0446d43a3b57" d="M393.33,35.71a1.5,1.5,0,0,1-1.42-1.95l.49-1.56a1.49,1.49,0,0,1,2.53-.56l1.1,1.2a1.5,1.5,0,0,1-.78,2.47l-1.59.35A1.53,1.53,0,0,1,393.33,35.71Zm.5-3.55h-.11a.49.49,0,0,0-.37.33h0l-.49,1.56a.5.5,0,0,0,.58.63l1.59-.35a.49.49,0,0,0,.26-.82l-1.1-1.2A.47.47,0,0,0,393.83,32.16Z"/><path class="9691e229-6c6b-4922-9ed9-72d615a5d072" d="M388.8,32.84a1.51,1.51,0,0,1-.46-.07,1.48,1.48,0,0,1-1-1.1L387,30.08a1.5,1.5,0,0,1,1.91-1.75l1.56.49a1.5,1.5,0,0,1,.56,2.53l-1.2,1.1A1.48,1.48,0,0,1,388.8,32.84Zm-.36-3.59a.5.5,0,0,0-.33.13.49.49,0,0,0-.15.47l.35,1.59a.5.5,0,0,0,.82.26l1.2-1.1a.5.5,0,0,0-.18-.84l-1.56-.49Z"/><path class="c2b5d80f-27ac-4627-b026-706b016ac006" d="M397.82,30.85a1.51,1.51,0,0,1-.46-.07l-1.56-.49a1.5,1.5,0,0,1-.56-2.53l1.2-1.1a1.5,1.5,0,0,1,2.47.78l.35,1.59a1.5,1.5,0,0,1-1.45,1.82Zm-.37-3.59a.48.48,0,0,0-.33.13l-1.2,1.1a.5.5,0,0,0,.18.84h0l1.56.49a.49.49,0,0,0,.63-.58l-.35-1.59a.49.49,0,0,0-.33-.37A.52.52,0,0,0,397.45,27.26Z"/><path class="83b6db37-9a79-4580-8221-80280b03d656" d="M392.43,27.87a1.48,1.48,0,0,1-1.1-.49l-1.1-1.2a1.5,1.5,0,0,1,.78-2.47l1.59-.35a1.5,1.5,0,0,1,1.75,1.91l-.49,1.56a1.48,1.48,0,0,1-1.1,1A1.55,1.55,0,0,1,392.43,27.87Zm.5-3.55h-.11l-1.59.35a.5.5,0,0,0-.26.82l1.1,1.2a.5.5,0,0,0,.84-.19L393.4,25a.5.5,0,0,0-.47-.65Z"/><path class="9f5b30f9-a8b6-4fa9-8fac-71b4062e5fe8" d="M372,43.79a1,1,0,0,1-.22-2l4.16-.92a1,1,0,1,1,.44,2h0l-4.16.92Zm4.17-1.93-4.17.91,4.17-.9Z"/><path class="90a99773-3384-49ff-ab6f-cfd4428d6aee" d="M382,41.57a1,1,0,0,1-.22-2l4.16-.92a1,1,0,1,1,.44,2l-4.16.92Zm4.17-1.93-4.17.91,4.17-.9Z"/><path class="cdd54301-2028-4694-bfc9-14e6f4fb90f2" d="M472,80l-36.51-8,9.15-31.67L477,47.37Zm-34-9.53,32.34,7.12,4.38-28.62-28.69-6.31Z"/><path class="0b964195-4c13-42df-b4c7-66c7c0cf255f" d="M470.28,55.61l-2-.43L471.45,41a8.11,8.11,0,0,0-6.16-9.63L462,30.66a8.11,8.11,0,0,0-9.63,6.16L449.29,51l-2-.43,3.12-14.18a10.11,10.11,0,0,1,12-7.68l3.26.72a10.09,10.09,0,0,1,7.68,12Z"/></g></svg>