<svg id="Layer_1" data-name="Layer 1" xmlns="http://www.w3.org/2000/svg" viewBox="0 0 24 24"><defs><style>.cls-1{fill:#4b4453;}</style></defs><title>username</title><path class="cls-1" d="M4.62,18.12A12.54,12.54,0,0,1,8,16.27a11.68,11.68,0,0,1,4-.67,11.68,11.68,0,0,1,4,.67,12.54,12.54,0,0,1,3.42,1.85A9.29,9.29,0,0,0,21,15.33,9.4,9.4,0,0,0,21.6,12a9.3,9.3,0,0,0-2.8-6.8A9.3,9.3,0,0,0,12,2.4,9.28,9.28,0,0,0,5.21,5.2,9.27,9.27,0,0,0,2.4,12,9.41,9.41,0,0,0,3,15.33,9.26,9.26,0,0,0,4.62,18.12ZM12,13.2A4.17,4.17,0,0,1,7.8,9,4.15,4.15,0,0,1,12,4.8,4.13,4.13,0,0,1,16.2,9,4.15,4.15,0,0,1,12,13.2ZM12,24a11.69,11.69,0,0,1-4.68-.95A11.92,11.92,0,0,1,1,16.68,11.69,11.69,0,0,1,0,12,11.69,11.69,0,0,1,1,7.32,12,12,0,0,1,7.32.94,11.68,11.68,0,0,1,12,0a11.68,11.68,0,0,1,4.68.94,12,12,0,0,1,6.38,6.38A11.68,11.68,0,0,1,24,12a11.68,11.68,0,0,1-.94,4.68,12,12,0,0,1-6.38,6.37A11.69,11.69,0,0,1,12,24Zm0-2.4a9.52,9.52,0,0,0,3-.47,8.78,8.78,0,0,0,2.58-1.33A9,9,0,0,0,15,18.46,9.52,9.52,0,0,0,12,18a9.52,9.52,0,0,0-3,.46A9,9,0,0,0,6.42,19.8,8.78,8.78,0,0,0,9,21.13,9.52,9.52,0,0,0,12,21.6Zm0-10.8A1.74,1.74,0,0,0,13.8,9a1.8,1.8,0,1,0-3.6,0A1.74,1.74,0,0,0,12,10.8Z" transform="translate(0 0)"/></svg>