<svg id="b0d12235-1b39-430f-ad80-f80354cc6e62" data-name="Layer 1" xmlns="http://www.w3.org/2000/svg" viewBox="0 0 185.47 184.6"><defs><style>.bd22d4b6-02f7-4f1e-8bc2-0243ec45146e{fill:#fecb09;}</style></defs><title>warning</title><path class="bd22d4b6-02f7-4f1e-8bc2-0243ec45146e" d="M346.45,460.57,205.12,496.72a22,22,0,0,1-26.69-27.31l39.36-140.47a22,22,0,0,1,37-9.46l102,104.32A22,22,0,0,1,346.45,460.57Z" transform="translate(-177.59 -312.83)"/><path d="M269.81,412.92a5.85,5.85,0,0,1-4.86,6.23h-.06c-3.16.53-6.29,1.21-9.41,2a9.7,9.7,0,0,1-11.55-6.07q-6.72-18.25-12.43-36.81a16,16,0,0,1,11-20.1,84.91,84.91,0,0,1,9-2l.11,0a10.42,10.42,0,0,1,12,8.53l.18,1.06C266.39,381.42,268.48,397.16,269.81,412.92ZM259,457.48a14,14,0,0,1,2.76-27.87A14,14,0,1,1,259,457.48Z" transform="translate(-177.59 -312.83)"/></svg>